:FULLY-SPECIFIED
:FORCE-ALL-JOINTS-BE-3DOF
:DEGREES
291
root 10.0642 16.8795 3.83415 5.5189 1.46677 3.31156
lfemur -2.85383 4.94742 -29.3243
ltibia 18.2391 -0 0
lfoot -18.8812 4.15782 -0.0036138
ltoes -3.66557 0 0
rfemur -37.0636 0.758099 15.2553
rtibia 41.8432 -0 0
rfoot -21.0537 -11.3225 -0.0058587
rtoes -23.9126 0 0
lowerback -5.74034 -3.57118 -4.58917
upperback -0.127994 -4.52939 2.09852
thorax 3.61178 -2.35279 4.33321
lowerneck -21.744 -3.90881 -11.4663
upperneck 23.0483 -4.66837 11.1794
head 11.6889 -1.72114 5.35952
lclavicle 1.97625e-14 5.03588e-15 0
lhumerus -11.4093 -21.5546 86.2842
lradius 27.1431 -0 0
lwrist 6.75472 0 0
lhand -15.922 -23.8866 0.00056293
lfingers 7.12502 0 0
lthumb 10.2755 5.84254 0.000574264
rclavicle 1.97625e-14 5.03588e-15 0
rhumerus -47.6991 8.08407 -83.3617
rradius 40.6369 -0 0
rwrist -23.5916 0 0
rhand -31.0103 -23.8947 0.0101273
rfingers 7.12502 0 0
rthumb -4.29306 -53.8316 0.00980122
292
root 10.0641 16.881 3.96923 5.72974 1.88683 3.33617
lfemur -1.95381 4.83564 -29.2493
ltibia 17.0112 -0 0
lfoot -18.5849 3.85336 -0.00392341
ltoes -2.98412 0 0
rfemur -37.559 1.08187 14.9028
rtibia 39.9551 -0 0
rfoot -21.1254 -10.7198 -0.0091365
rtoes -23.3362 0 0
lowerback -6.02492 -3.66189 -4.64172
upperback -0.117779 -4.63484 2.10257
thorax 3.79863 -2.4103 4.33779
lowerneck -21.8255 -4.00565 -11.5037
upperneck 23.0347 -4.81097 11.276
head 11.7238 -1.77434 5.37978
lclavicle 2.17421e-14 5.56597e-15 0
lhumerus -10.9851 -22.7291 86.3494
lradius 27.638 -0 0
lwrist 8.01223 0 0
lhand -15.8566 -23.4743 0.000263806
lfingers 7.12502 0 0
lthumb 10.3386 6.25177 0.00029885
rclavicle 2.17421e-14 5.56597e-15 0
rhumerus -47.7928 8.05613 -83.4229
rradius 40.4244 -0 0
rwrist -23.4829 0 0
rhand -31.1073 -25.7314 0.0102378
rfingers 7.12502 0 0
rthumb -4.38674 -55.6663 0.00990413
293
root 10.0641 16.8825 4.10432 5.95518 2.32556 3.36097
lfemur -1.02092 4.69966 -29.1654
ltibia 15.6924 -0 0
lfoot -18.2284 3.55621 -0.00311678
ltoes -2.29054 0 0
rfemur -38.0384 1.49113 14.4818
rtibia 38.1015 -0 0
rfoot -21.2634 -10.1542 -0.0101563
rtoes -22.5715 0 0
lowerback -6.31668 -3.75608 -4.69596
upperback -0.115178 -4.74422 2.10844
thorax 3.98268 -2.4696 4.34423
lowerneck -21.883 -4.10247 -11.5504
upperneck 23.0026 -4.95352 11.3805
head 11.7475 -1.82798 5.40379
lclavicle 2.37217e-14 6.09606e-15 0
lhumerus -10.6055 -23.9246 86.4281
lradius 28.1692 -0 0
lwrist 9.30042 0 0
lhand -15.7653 -23.0384 -0.000172519
lfingers 7.12502 0 0
lthumb 10.4267 6.6833 -0.000119292
rclavicle 2.37217e-14 6.09606e-15 0
rhumerus -47.8797 8.01183 -83.4739
rradius 40.1865 -0 0
rwrist -23.3316 0 0
rhand -31.1796 -27.5741 0.00760866
rfingers 7.12502 0 0
rthumb -4.4566 -57.5074 0.00735686
294
root 10.0641 16.884 4.23941 6.16458 2.76675 3.39738
lfemur 0.0089298 4.54865 -29.0841
ltibia 14.2438 -0 0
lfoot -17.8169 3.29228 -0.00153236
ltoes -1.72924 0 0
rfemur -38.4876 2.04436 13.953
rtibia 36.3435 -0 0
rfoot -21.4817 -9.74145 -0.00727469
rtoes -21.7436 0 0
lowerback -6.58515 -3.85297 -4.76325
upperback -0.122439 -4.85684 2.11237
thorax 4.14505 -2.53005 4.35689
lowerneck -21.8876 -4.19083 -11.6044
upperneck 22.9608 -5.08359 11.4752
head 11.7555 -1.87939 5.42668
lclavicle 2.57012e-14 6.62616e-15 0
lhumerus -10.2929 -25.095 86.5241
lradius 28.7331 -0 0
lwrist 10.5618 0 0
lhand -15.6528 -22.6111 -0.00042972
lfingers 7.12502 0 0
lthumb 10.5352 7.105 -0.000380379
rclavicle 2.57012e-14 6.62616e-15 0
rhumerus -47.9675 7.9384 -83.5072
rradius 39.9093 -0 0
rwrist -23.1288 0 0
rhand -31.2323 -29.1052 0.00368151
rfingers 7.12502 0 0
rthumb -4.50748 -59.0373 0.0035567
295
root 10.0641 16.8855 4.3745 6.32741 3.19415 3.45623
lfemur 1.19993 4.39203 -29.0169
ltibia 12.6263 0 0
lfoot -17.3556 3.08744 0
ltoes -1.44458 0 0
rfemur -38.895 2.79986 13.2765
rtibia 34.7426 0 0
rfoot -21.7945 -9.59742 0
rtoes -20.9777 0 0
lowerback -6.79984 -3.95179 -4.85507
upperback -0.141798 -4.972 2.11064
thorax 4.26687 -2.59104 4.38017
lowerneck -21.8102 -4.26223 -11.6639
upperneck 22.9186 -5.18885 11.5423
head 11.7433 -1.92592 5.4436
lclavicle 2.76808e-14 7.15625e-15 0
lhumerus -10.0708 -26.1945 86.6425
lradius 29.3266 0 0
lwrist 11.739 0 0
lhand -15.5237 -22.2248 0
lfingers 7.12502 0 0
lthumb 10.6597 7.48477 0
rclavicle 2.76808e-14 7.15625e-15 0
rhumerus -48.0638 7.8231 -83.515
rradius 39.5789 0 0
rwrist -22.8658 0 0
rhand -31.2705 -30.0071 0
rfingers 7.12502 0 0
rthumb -4.54436 -59.9384 0
